<?xml version="1.0" standalone="no"?>
<!DOCTYPE svg PUBLIC "-//W3C//DTD SVG 20010904//EN"
 "http://www.w3.org/TR/2001/REC-SVG-20010904/DTD/svg10.dtd">
<svg version="1.0" xmlns="http://www.w3.org/2000/svg"
 width="1000.000000pt" height="1079.000000pt" viewBox="0 0 1000.000000 1079.000000"
 preserveAspectRatio="xMidYMid meet">

<g transform="translate(0.000000,1079.000000) scale(0.100000,-0.100000)"
fill="#000000" stroke="none">
<path d="M4930 7610 c-50 -50 8 79 -1105 -2436 -317 -715 -364 -815 -420 -890
-96 -128 -219 -183 -408 -184 -90 0 -117 -11 -117 -45 0 -44 41 -48 402 -37
200 5 434 5 600 0 281 -10 322 -6 335 28 13 35 -22 48 -145 54 -134 7 -179 25
-202 80 -19 47 -7 143 33 255 32 91 905 2190 925 2224 5 8 13 16 19 18 5 2
146 -331 312 -739 167 -409 400 -974 518 -1257 248 -593 240 -551 118 -587
-37 -12 -44 -39 -13 -55 30 -17 576 -31 988 -27 321 3 350 8 350 49 0 27 -37
39 -118 39 -170 0 -260 35 -367 144 -81 81 -143 173 -214 313 -59 117 -624
1372 -1043 2315 -317 715 -340 758 -399 758 -16 0 -38 -9 -49 -20z"/>
<path d="M6047 7590 c-225 -22 -444 -90 -590 -183 l-56 -36 77 -175 c72 -164
92 -199 92 -160 0 35 66 137 122 190 111 102 227 143 428 151 212 8 344 -24
485 -118 146 -98 255 -269 255 -400 0 -73 30 -111 70 -89 30 16 40 67 40 210
0 76 5 218 11 316 13 219 21 205 -147 239 -249 50 -590 74 -787 55z"/>
<path d="M5820 6435 c0 -3 76 -176 169 -383 480 -1069 641 -1424 679 -1488 53
-91 128 -191 159 -211 22 -15 25 -14 49 8 37 34 108 144 139 214 79 179 95
429 40 640 -80 305 -306 567 -760 882 -60 42 -162 112 -225 156 -63 44 -145
104 -182 134 -38 30 -68 51 -68 48z"/>
<path d="M4981 4929 c-21 -34 -26 -80 -41 -349 -20 -364 -12 -446 50 -490 63
-45 317 -111 484 -126 75 -7 79 -6 71 12 -4 10 -10 44 -12 74 -4 44 0 64 20
103 13 26 22 49 18 51 -3 2 -24 9 -46 16 -145 45 -282 160 -352 296 -54 104
-92 228 -99 323 -4 42 -13 86 -20 99 -20 31 -51 28 -73 -9z"/>
<path d="M0 400 l0 -400 5000 0 5000 0 0 400 0 400 -5000 0 -5000 0 0 -400z
m2192 123 c23 -20 23 -57 1 -74 -15 -11 -16 -11 -5 1 27 31 11 72 -33 83 -19
4 -19 5 -1 6 11 0 28 -6 38 -16z m-69 -8 c-3 -9 -8 -14 -10 -11 -3 3 -2 9 2
15 9 16 15 13 8 -4z m-1760 -114 c22 -61 43 -108 47 -104 4 4 24 56 45 116 21
59 42 107 47 107 11 0 9 -5 -42 -149 -23 -64 -44 -107 -53 -109 -15 -3 -17 0
-67 143 -15 44 -31 88 -36 99 -5 13 -3 17 6 14 8 -2 32 -55 53 -117z m517 89
c0 -23 4 -30 20 -30 11 0 20 -4 20 -10 0 -5 -10 -10 -21 -10 -20 0 -21 -4 -17
-71 3 -55 8 -74 23 -85 10 -8 16 -16 13 -19 -11 -11 -40 8 -49 32 -12 33 -12
223 1 223 6 0 10 -13 10 -30z m520 15 c19 -10 27 -20 24 -30 -5 -13 -9 -13
-34 0 -36 18 -61 19 -84 2 -28 -21 -9 -45 49 -62 87 -25 108 -74 54 -127 -29
-29 -33 -30 -90 -25 -68 6 -72 8 -64 29 5 13 12 14 40 5 50 -15 100 1 100 33
0 17 -8 28 -24 35 -103 42 -120 60 -107 109 11 43 82 59 136 31z m100 -15 c0
-25 4 -30 25 -30 16 0 25 -6 25 -15 0 -9 -9 -15 -25 -15 -25 0 -26 -1 -23 -62
3 -54 6 -64 26 -73 12 -5 22 -13 22 -18 0 -17 -31 -18 -55 -3 -24 16 -25 20
-25 131 0 96 3 115 15 115 10 0 15 -10 15 -30z m482 -30 l3 -61 35 30 c19 17
44 30 55 31 16 0 12 -7 -20 -40 l-39 -40 42 -60 c40 -57 41 -60 20 -60 -16 0
-32 14 -53 45 -16 25 -33 45 -37 45 -5 0 -8 -20 -8 -45 0 -38 -3 -45 -20 -45
-19 0 -20 7 -20 130 0 122 1 130 20 130 16 0 19 -8 22 -60z m193 28 c1 -20 -2
-24 -11 -17 -8 7 -14 6 -17 -3 -3 -7 -6 2 -6 20 -1 27 3 33 17 30 11 -2 17
-13 17 -30z m-44 -35 c13 -16 12 -17 -3 -4 -17 13 -22 21 -14 21 2 0 10 -8 17
-17z m-1504 -15 c12 -13 23 -36 25 -53 l3 -30 -67 -3 c-75 -3 -85 -15 -47 -53
17 -17 30 -20 65 -16 43 4 59 -5 28 -17 -45 -17 -106 3 -123 41 -44 96 50 202
116 131z m193 12 c17 -11 10 -13 -40 -10 -47 2 -75 -28 -75 -80 0 -55 26 -80
82 -80 27 0 42 -4 38 -10 -9 -15 -78 -12 -102 5 -50 35 -50 135 0 170 24 17
74 20 97 5z m271 -19 c23 -23 29 -38 29 -71 0 -33 -6 -48 -29 -71 -40 -40 -82
-39 -123 1 -28 28 -30 36 -25 78 10 87 89 121 148 63z m79 13 c0 -14 2 -14 22
0 24 17 38 20 38 9 0 -5 -14 -16 -30 -25 -29 -17 -30 -19 -30 -93 0 -43 -4
-75 -10 -75 -6 0 -10 40 -10 100 0 60 4 100 10 100 6 0 10 -7 10 -16z m545 -9
c20 -19 25 -34 25 -75 0 -63 -30 -100 -82 -100 -67 0 -107 62 -87 135 18 66
97 88 144 40z m190 5 c0 -9 -8 -14 -20 -13 -38 5 -63 -7 -74 -35 -24 -57 12
-111 64 -98 27 7 45 -12 24 -25 -50 -32 -129 20 -129 85 0 72 34 107 100 103
24 -1 35 -7 35 -17z m5394 -83 c8 -26 17 -47 21 -47 4 0 13 21 21 47 8 25 20
48 26 50 8 3 4 -21 -11 -64 -13 -38 -29 -68 -36 -68 -7 0 -23 30 -36 68 -15
43 -19 67 -11 64 6 -2 18 -25 26 -50z m638 38 c2 -6 -9 -11 -23 -10 -39 0 -42
-23 -5 -36 34 -12 49 -43 31 -64 -13 -16 -38 -19 -64 -9 -27 10 -18 22 17 20
38 -1 43 19 8 37 -36 18 -48 42 -31 62 14 17 61 17 67 0z m333 -20 c0 -35 16
-47 26 -20 4 8 13 15 22 15 13 0 13 -3 -2 -19 -16 -18 -16 -21 -1 -50 19 -38
8 -40 -22 -3 l-22 27 -1 -27 c0 -16 -4 -28 -10 -28 -6 0 -10 30 -10 70 0 40 4
70 10 70 6 0 10 -16 10 -35z m580 32 c0 -4 -34 -104 -45 -136 -3 -8 -8 -11
-11 -8 -8 7 38 147 48 147 4 0 8 -2 8 -3z m98 -9 c21 -21 13 -45 -25 -77 l-38
-30 43 -1 c23 0 42 -4 42 -10 0 -5 -22 -10 -50 -10 -62 0 -65 15 -14 63 42 40
39 62 -8 53 -26 -5 -29 -4 -18 9 15 18 51 20 68 3z m109 0 c14 -23 12 -106 -2
-118 -35 -29 -91 12 -68 50 7 10 10 26 7 35 -13 33 44 62 63 33z m93 -48 c0
-33 4 -60 10 -60 6 0 10 -4 10 -10 0 -5 -13 -10 -30 -10 -16 0 -30 5 -30 10 0
6 5 10 10 10 6 0 10 20 10 45 0 38 -2 43 -17 38 -16 -6 -16 -4 1 15 29 34 36
27 36 -38z m122 8 c2 -29 2 -61 0 -70 -5 -22 -22 -24 -22 -3 0 10 -10 15 -30
15 -16 0 -30 3 -30 6 0 16 56 104 67 104 6 0 13 -22 15 -52z m88 -8 c0 -33 4
-60 10 -60 6 0 10 -4 10 -10 0 -5 -13 -10 -30 -10 -16 0 -30 5 -30 10 0 6 5
10 10 10 6 0 10 20 10 45 0 38 -2 43 -17 38 -16 -6 -16 -4 1 15 29 34 36 27
36 -38z m130 55 c0 -6 -60 -127 -66 -134 -2 -2 -7 -2 -10 1 -3 3 6 29 20 57
14 28 26 53 26 56 0 3 -13 5 -30 5 -16 0 -30 5 -30 10 0 6 20 10 45 10 25 0
45 -2 45 -5z m90 -14 c-5 -11 -15 -23 -20 -26 -6 -4 -1 -14 12 -25 20 -15 21
-21 10 -44 -11 -26 -34 -32 -66 -20 -28 11 -17 24 14 18 22 -5 31 -2 36 11 6
16 -3 28 -31 39 -6 2 -5 9 3 17 18 19 15 29 -8 29 -11 0 -20 5 -20 10 0 6 18
10 40 10 37 0 40 -2 30 -19z m114 -3 c44 -63 -17 -154 -68 -102 -9 9 -16 32
-16 54 0 64 52 94 84 48z m-2055 -36 c-14 -6 -10 -60 4 -65 6 -2 9 -7 6 -11
-15 -17 -37 8 -41 47 -6 58 0 73 22 50 9 -10 13 -19 9 -21z m361 13 c9 -10 9
-15 1 -15 -15 0 -14 -57 2 -63 6 -2 9 -7 6 -11 -15 -17 -37 8 -41 47 -7 58 5
74 32 42z m-532 -7 c23 -23 13 -38 -24 -38 -46 0 -41 -23 7 -30 27 -4 30 -7
16 -13 -28 -11 -44 -9 -61 9 -32 31 -14 84 29 84 12 0 26 -5 33 -12z m109 5
c14 -6 10 -9 -17 -13 -29 -4 -35 -9 -35 -30 0 -21 5 -26 33 -28 36 -4 34 -22
-3 -22 -28 0 -55 24 -55 50 0 22 25 50 45 50 7 0 22 -3 32 -7z m177 -9 c31
-30 9 -84 -34 -84 -24 0 -50 26 -50 50 0 24 26 50 50 50 10 0 26 -7 34 -16z
m86 6 c0 -4 -7 -10 -15 -14 -9 -3 -15 -19 -15 -41 0 -19 -4 -35 -10 -35 -5 0
-10 22 -10 49 0 45 2 49 25 49 14 0 25 -4 25 -8z m272 -7 c22 -20 23 -41 1
-65 -20 -22 -46 -23 -67 -2 -30 29 -9 84 31 84 9 0 25 -7 35 -17z m115 10 c14
-6 10 -9 -17 -13 -29 -4 -35 -9 -35 -30 0 -21 6 -26 35 -30 27 -4 31 -7 17
-13 -10 -4 -25 -7 -32 -7 -20 0 -45 28 -45 50 0 22 25 50 45 50 7 0 22 -3 32
-7z m250 0 c14 -6 10 -9 -17 -13 -29 -4 -35 -9 -35 -30 0 -21 5 -26 33 -28 36
-4 34 -22 -3 -22 -28 0 -55 24 -55 50 0 22 25 50 45 50 7 0 22 -3 32 -7z m107
-9 c21 -20 20 -43 -1 -66 -20 -22 -46 -23 -67 -2 -31 30 -9 84 34 84 10 0 26
-7 34 -16z m111 5 c3 -5 14 -3 25 3 28 18 50 -6 50 -53 0 -22 -4 -39 -10 -39
-5 0 -10 18 -10 41 0 33 -3 40 -17 37 -13 -2 -19 -14 -21 -41 -4 -50 -22 -47
-22 4 0 36 -2 40 -22 37 -19 -2 -24 -10 -26 -40 -5 -55 -22 -47 -22 10 l0 48
35 1 c19 1 37 -3 40 -8z m-325 -79 c0 -5 -4 -10 -10 -10 -5 0 -10 5 -10 10 0
6 5 10 10 10 6 0 10 -4 10 -10z"/>
<path d="M2150 500 c0 -5 5 -10 10 -10 6 0 10 5 10 10 0 6 -4 10 -10 10 -5 0
-10 -4 -10 -10z"/>
<path d="M536 418 c-28 -39 -21 -48 39 -48 59 0 67 9 45 51 -15 27 -64 25 -84
-3z"/>
<path d="M986 424 c-50 -50 -21 -144 44 -144 48 0 80 50 66 104 -13 53 -75 75
-110 40z"/>
<path d="M1616 408 c-32 -46 -8 -118 39 -118 28 0 55 34 55 70 0 36 -27 70
-55 70 -13 0 -31 -10 -39 -22z"/>
<path d="M9012 374 c2 -11 11 -20 22 -22 13 -3 17 1 14 14 -2 11 -11 20 -22
22 -13 3 -17 -1 -14 -14z"/>
<path d="M9004 325 c-8 -21 10 -39 30 -32 22 9 20 24 -4 37 -16 9 -22 8 -26
-5z"/>
<path d="M9227 350 c-18 -29 -18 -30 2 -30 17 0 21 6 21 30 0 17 -1 30 -3 30
-1 0 -11 -13 -20 -30z"/>
<path d="M9634 365 c-9 -38 3 -75 26 -75 23 0 35 37 26 75 -4 16 -13 25 -26
25 -13 0 -22 -9 -26 -25z"/>
<path d="M7415 340 c-4 -6 5 -10 19 -10 14 0 26 5 26 10 0 6 -9 10 -19 10 -11
0 -23 -4 -26 -10z"/>
<path d="M7694 336 c-10 -26 4 -48 28 -44 17 2 23 10 23 28 0 18 -6 26 -23 28
-13 2 -25 -3 -28 -12z"/>
<path d="M8054 336 c-10 -26 4 -48 28 -44 17 2 23 10 23 28 0 18 -6 26 -23 28
-13 2 -25 -3 -28 -12z"/>
<path d="M8524 336 c-10 -26 4 -48 28 -44 17 2 23 10 23 28 0 18 -6 26 -23 28
-13 2 -25 -3 -28 -12z"/>
</g>
</svg>
